<svg xmlns="http://www.w3.org/2000/svg" viewBox="0 0 800 600">
  <defs>
    <linearGradient id="bgGradient" x1="0%" y1="0%" x2="100%" y2="100%">
      <stop offset="0%" style="stop-color:#FF7043"/>
      <stop offset="100%" style="stop-color:#FF8A65"/>
    </linearGradient>
    <filter id="glow">
      <feGaussianBlur stdDeviation="3" result="coloredBlur"/>
      <feMerge>
        <feMergeNode in="coloredBlur"/>
        <feMergeNode in="SourceGraphic"/>
      </feMerge>
    </filter>
  </defs>
  
  <!-- Background -->
  <rect width="100%" height="100%" fill="url(#bgGradient)"/>
  
  <!-- Light Bulb -->
  <g transform="translate(400,300)">
    <!-- Bulb Body -->
    <path d="M-40,-60 A60,60 0 1,1 40,-60 L30,0 L-30,0 Z" fill="#FFD54F" filter="url(#glow)"/>
    <!-- Base -->
    <path d="M-30,0 L30,0 L25,20 L-25,20 Z M-25,20 L25,20 L20,40 L-20,40 Z" fill="#455A64"/>
  </g>
  
  <!-- Checklist -->
  <g transform="translate(200,200)">
    <rect x="-40" y="-60" width="80" height="120" fill="white" rx="5"/>
    <line x1="-20" y1="-30" x2="20" y2="-30" stroke="#333" stroke-width="2"/>
    <line x1="-20" y1="0" x2="20" y2="0" stroke="#333" stroke-width="2"/>
    <line x1="-20" y1="30" x2="20" y2="30" stroke="#333" stroke-width="2"/>
  </g>
  
  <!-- Hatching Egg -->
  <g transform="translate(600,200)">
    <path d="M-30,60 C-30,-20 30,-20 30,60 Z" fill="white"/>
    <path d="M-10,0 L10,20 M0,-10 L0,10" stroke="#FF7043" stroke-width="3" stroke-linecap="round"/>
  </g>
  
  <!-- Decorative Elements -->
  <g transform="translate(400,500)">
    <circle cx="-100" cy="0" r="10" fill="white" opacity="0.6"/>
    <circle cx="0" cy="0" r="10" fill="white" opacity="0.6"/>
    <circle cx="100" cy="0" r="10" fill="white" opacity="0.6"/>
  </g>
  
  <!-- Sparkles -->
  <g fill="#FFD54F" filter="url(#glow)">
    <circle cx="150" cy="150" r="5"/>
    <circle cx="650" cy="150" r="5"/>
    <circle cx="400" cy="100" r="5"/>
  </g>
</svg>