<svg xmlns="http://www.w3.org/2000/svg" viewBox="0 0 800 600">
  <defs>
    <linearGradient id="buildingGradient" x1="0%" y1="0%" x2="0%" y2="100%">
      <stop offset="0%" style="stop-color:#FFE4C4"/>
      <stop offset="100%" style="stop-color:#DEB887"/>
    </linearGradient>
    <linearGradient id="skyGradient" x1="0%" y1="0%" x2="0%" y2="100%">
      <stop offset="0%" style="stop-color:#87CEEB"/>
      <stop offset="100%" style="stop-color:#E0FFFF"/>
    </linearGradient>
  </defs>
  
  <!-- Sky Background -->
  <rect width="100%" height="100%" fill="url(#skyGradient)"/>
  
  <!-- Buildings -->
  <g transform="translate(50,100)">
    <!-- Building 1 -->
    <rect x="0" y="100" width="150" height="300" fill="url(#buildingGradient)" rx="5"/>
    <g id="windows1">
      <rect x="20" y="130" width="30" height="40" fill="#87CEEB" opacity="0.8"/>
      <rect x="60" y="130" width="30" height="40" fill="#87CEEB" opacity="0.8"/>
      <rect x="100" y="130" width="30" height="40" fill="#87CEEB" opacity="0.8"/>
    </g>
    <use href="#windows1" transform="translate(0,60)"/>
    <use href="#windows1" transform="translate(0,120)"/>
    <use href="#windows1" transform="translate(0,180)"/>
    
    <!-- Building 2 -->
    <rect x="200" y="150" width="150" height="250" fill="url(#buildingGradient)" rx="5"/>
    <g id="windows2">
      <rect x="220" y="180" width="30" height="40" fill="#87CEEB" opacity="0.8"/>
      <rect x="260" y="180" width="30" height="40" fill="#87CEEB" opacity="0.8"/>
      <rect x="300" y="180" width="30" height="40" fill="#87CEEB" opacity="0.8"/>
    </g>
    <use href="#windows2" transform="translate(0,60)"/>
    <use href="#windows2" transform="translate(0,120)"/>
    
    <!-- Building 3 -->
    <rect x="400" y="50" width="150" height="350" fill="url(#buildingGradient)" rx="5"/>
    <g id="windows3">
      <rect x="420" y="80" width="30" height="40" fill="#87CEEB" opacity="0.8"/>
      <rect x="460" y="80" width="30" height="40" fill="#87CEEB" opacity="0.8"/>
      <rect x="500" y="80" width="30" height="40" fill="#87CEEB" opacity="0.8"/>
    </g>
    <use href="#windows3" transform="translate(0,60)"/>
    <use href="#windows3" transform="translate(0,120)"/>
    <use href="#windows3" transform="translate(0,180)"/>
    <use href="#windows3" transform="translate(0,240)"/>
  </g>
  
  <!-- Trees -->
  <g transform="translate(600,300)">
    <path d="M-20,100 L20,100 L0,0 Z" fill="#228B22"/>
    <rect x="-5" y="100" width="10" height="20" fill="#8B4513"/>
  </g>
  <g transform="translate(650,320)">
    <path d="M-15,80 L15,80 L0,0 Z" fill="#228B22"/>
    <rect x="-4" y="80" width="8" height="15" fill="#8B4513"/>
  </g>
  
  <!-- Pool -->
  <rect x="550" y="450" width="200" height="100" fill="#87CEEB" opacity="0.6" rx="10"/>
  <path d="M560,460 Q650,480 740,460" fill="none" stroke="white" stroke-width="2" opacity="0.5"/>
</svg>